<svg xmlns="http://www.w3.org/2000/svg" viewBox="0 0 350.04 281.87" width="400" height="400"><defs><style>.cls-1{fill:#ffffff;}.cls-2{fill:#ffffff;}.cls-3{fill:#ffffff;}.cls-4{fill:#ffffff;}.cls-5{fill:#d9aa53;}.cls-6{fill:#eecb6c;}.cls-7{fill:#fdfbe9;}.cls-8{fill:#fdfbe9;}.cls-9{fill:#d9aa53;}</style></defs><g id="OBJECTS"><path class="cls-1" d="M254.13,228.86a11.49,11.49,0,0,1-10.75,8.19h0a11.51,11.51,0,0,1-10.74-8.19h0a11.5,11.5,0,0,1-10.75,8.19h0a11.49,11.49,0,0,1-10.75-8.19h0a11.51,11.51,0,0,1-10.76,8.19h0a11.51,11.51,0,0,1-10.75-8.19h0a11.49,11.49,0,0,1-10.75,8.19h0a11.53,11.53,0,0,1-10.75-8.19h0a11.51,11.51,0,0,1-10.74,8.19h0a11.51,11.51,0,0,1-10.75-8.19h0a11.51,11.51,0,0,1-10.75,8.19h0a11.5,11.5,0,0,1-10.75-8.19h0a11.51,11.51,0,0,1-10.75,8.19h0a11.51,11.51,0,0,1-10.76-8.19h0a11.49,11.49,0,0,1-10.75,8.19h0A11.57,11.57,0,0,1,82,228.45h0c-2,5.2-7,8.45-12.38,7.52h0c-5.47-1-9.41-6-9.61-11.77h0a10.82,10.82,0,0,1-14.16,3.24h0A12.8,12.8,0,0,1,40.14,213h0a10.78,10.78,0,0,1-14.38-1.74h0a13.2,13.2,0,0,1-1.29-15.62h0c-5.15,1.49-10.72-1.11-13.17-6.5h0a13,13,0,0,1,3.28-15.29h0c-5.33-.35-9.88-4.71-10.64-10.66h0c-.77-5.94,2.5-11.48,7.53-13.39h0a12.57,12.57,0,0,1-7-13.7h0c1-5.91,5.65-10.09,11-10.22h0a13.09,13.09,0,0,1-2.73-15.4h0c2.65-5.28,8.3-7.65,13.4-6h0A13.13,13.13,0,0,1,27.93,89h0a10.76,10.76,0,0,1,14.44-1.13h0c-1.29-5.61,1.19-11.62,6.21-14.17h0a10.87,10.87,0,0,1,14.05,3.82h0c.4-5.77,4.51-10.62,10-11.34h0a11.36,11.36,0,0,1,12,7.8h0A11.53,11.53,0,0,1,95.5,65.55h0a11.53,11.53,0,0,1,10.75,8.19h0A11.51,11.51,0,0,1,117,65.55h0a11.52,11.52,0,0,1,10.75,8.19h0a11.53,11.53,0,0,1,10.75-8.19h0a11.54,11.54,0,0,1,10.75,8.19h0A11.53,11.53,0,0,1,160,65.55h0a11.51,11.51,0,0,1,10.75,8.19h0a11.55,11.55,0,0,1,10.76-8.19h0a11.53,11.53,0,0,1,10.75,8.19h0A11.51,11.51,0,0,1,203,65.55h0a11.53,11.53,0,0,1,10.75,8.19h0a11.52,11.52,0,0,1,10.75-8.19h0a11.53,11.53,0,0,1,10.75,8.19h0A11.53,11.53,0,0,1,246,65.55h0a11.52,11.52,0,0,1,10.74,8.19h0a11.55,11.55,0,0,1,10.75-8.19h0a3.62,3.62,0,0,1,.47,0h.3c5.42.25,9.79,4.54,10.74,10.06h0A11.06,11.06,0,0,1,292.34,70h0c5.27,1.81,8.48,7.36,7.92,13.09h0a10.8,10.8,0,0,1,14.5-.94h0a13,13,0,0,1,3.62,15.29h0a11,11,0,0,1,14,4.35h0a13.2,13.2,0,0,1-1.26,15.67h0c5.31-.46,10.36,3.16,11.89,8.92h0a12.79,12.79,0,0,1-5.65,14.38h0c5.15,1.29,9,6.35,8.85,12.32h0c-.11,6-4.1,10.87-9.31,11.93h0A12.88,12.88,0,0,1,342,179.67h0c-1.75,5.71-6.95,9.1-12.25,8.37h0a13.21,13.21,0,0,1,.62,15.75h0a10.88,10.88,0,0,1-14.17,3.63h0a13,13,0,0,1-4.27,15.11h0a10.73,10.73,0,0,1-14.4-1.64h0c.32,5.75-3.09,11.13-8.41,12.71h0A11.11,11.11,0,0,1,276,227.44h0c-1.16,5.51-5.7,9.61-11.14,9.61h0A11.51,11.51,0,0,1,254.13,228.86Z"></path><path class="cls-2" d="M254.13,228.86a11.49,11.49,0,0,1-10.75,8.19h0a11.51,11.51,0,0,1-10.74-8.19h0a11.5,11.5,0,0,1-10.75,8.19h0a11.49,11.49,0,0,1-10.75-8.19h0a11.51,11.51,0,0,1-10.76,8.19h0a11.51,11.51,0,0,1-10.75-8.19h0a11.49,11.49,0,0,1-10.75,8.19h0a11.53,11.53,0,0,1-10.75-8.19h0a11.51,11.51,0,0,1-10.74,8.19h0a11.51,11.51,0,0,1-10.75-8.19h0a11.51,11.51,0,0,1-10.75,8.19h0a11.5,11.5,0,0,1-10.75-8.19h0a11.51,11.51,0,0,1-10.75,8.19h0a11.51,11.51,0,0,1-10.76-8.19h0a11.49,11.49,0,0,1-10.75,8.19h0A11.57,11.57,0,0,1,82,228.45h0c-2,5.2-7,8.45-12.38,7.52h0c-5.47-1-9.41-6-9.61-11.77h0a10.82,10.82,0,0,1-14.16,3.24h0A12.8,12.8,0,0,1,40.14,213h0a10.78,10.78,0,0,1-14.38-1.74h0a13.2,13.2,0,0,1-1.29-15.62h0c-5.15,1.49-10.72-1.11-13.17-6.5h0a13,13,0,0,1,3.28-15.29h0c-5.33-.35-9.88-4.71-10.64-10.66h0c-.77-5.94,2.5-11.48,7.53-13.39h0a12.57,12.57,0,0,1-7-13.7h0c1-5.91,5.65-10.09,11-10.22h0a13.09,13.09,0,0,1-2.73-15.4h0c2.65-5.28,8.3-7.65,13.4-6h0A13.13,13.13,0,0,1,27.93,89h0a10.76,10.76,0,0,1,14.44-1.13h0c-1.29-5.61,1.19-11.62,6.21-14.17h0a10.87,10.87,0,0,1,14.05,3.82h0c.4-5.77,4.51-10.62,10-11.34h0a11.36,11.36,0,0,1,12,7.8h0A11.53,11.53,0,0,1,95.5,65.55h0a11.53,11.53,0,0,1,10.75,8.19h0A11.51,11.51,0,0,1,117,65.55h0a11.52,11.52,0,0,1,10.75,8.19h0a11.53,11.53,0,0,1,10.75-8.19h0a11.54,11.54,0,0,1,10.75,8.19h0A11.53,11.53,0,0,1,160,65.55h0a11.51,11.51,0,0,1,10.75,8.19h0a11.55,11.55,0,0,1,10.76-8.19h0a11.53,11.53,0,0,1,10.75,8.19h0A11.51,11.51,0,0,1,203,65.55h0a11.53,11.53,0,0,1,10.75,8.19h0a11.52,11.52,0,0,1,10.75-8.19h0a11.53,11.53,0,0,1,10.75,8.19h0A11.53,11.53,0,0,1,246,65.55h0a11.52,11.52,0,0,1,10.74,8.19h0a11.55,11.55,0,0,1,10.75-8.19h0a3.62,3.62,0,0,1,.47,0h.3c5.42.25,9.79,4.54,10.74,10.06h0A11.06,11.06,0,0,1,292.34,70h0c5.27,1.81,8.48,7.36,7.92,13.09h0a10.8,10.8,0,0,1,14.5-.94h0a13,13,0,0,1,3.62,15.29h0a11,11,0,0,1,14,4.35h0a13.2,13.2,0,0,1-1.26,15.67h0c5.31-.46,10.36,3.16,11.89,8.92h0a12.79,12.79,0,0,1-5.65,14.38h0c5.15,1.29,9,6.35,8.85,12.32h0c-.11,6-4.1,10.87-9.31,11.93h0A12.88,12.88,0,0,1,342,179.67h0c-1.75,5.71-6.95,9.1-12.25,8.37h0a13.21,13.21,0,0,1,.62,15.75h0a10.88,10.88,0,0,1-14.17,3.63h0a13,13,0,0,1-4.27,15.11h0a10.73,10.73,0,0,1-14.4-1.64h0c.32,5.75-3.09,11.13-8.41,12.71h0A11.11,11.11,0,0,1,276,227.44h0c-1.16,5.51-5.7,9.61-11.14,9.61h0A11.51,11.51,0,0,1,254.13,228.86Z"></path><path class="cls-3" d="M82.28,216.93c-33.38,0-60.53-29.44-60.53-65.62S48.9,85.68,82.28,85.68H267.36c18.8.84,34.46,8.25,45.3,21.43,9.68,11.77,15,27.46,15,44.2s-5.34,32.43-15,44.2c-10.85,13.18-26.5,20.59-45.29,21.42Z"></path><ellipse class="cls-4" cx="312.07" cy="111" rx="14.21" ry="13.84"></ellipse><ellipse class="cls-4" cx="54.33" cy="205.59" rx="14.21" ry="13.84"></ellipse><path class="cls-5" d="M66.48,44.82H205.89a4.7,4.7,0,0,1,4.7,4.7V166.63a0,0,0,0,1,0,0H61.78a0,0,0,0,1,0,0V49.52A4.7,4.7,0,0,1,66.48,44.82Z"></path><path class="cls-6" d="M218.32,58.77h44.2a14.07,14.07,0,0,1,13.62,10.58l11.95,46.89a14,14,0,0,1,.43,3.47v51.37H210.59V66.5A7.73,7.73,0,0,1,218.32,58.77Z"></path><rect class="cls-5" x="52.76" y="166.63" width="243.56" height="13.29" rx="3.52"></rect><circle class="cls-5" cx="105.2" cy="173.27" r="28.03" transform="translate(-91.71 125.14) rotate(-45)"></circle><circle class="cls-7" cx="105.2" cy="173.27" r="15.6" transform="translate(-91.71 125.14) rotate(-45)"></circle><path class="cls-8" d="M115.89,173.27a10.69,10.69,0,1,1-10.69-10.69A10.69,10.69,0,0,1,115.89,173.27Z"></path><circle class="cls-5" cx="253.84" cy="173.27" r="28.03" transform="translate(27.24 380.91) rotate(-76.82)"></circle><circle class="cls-7" cx="253.84" cy="173.27" r="15.6" transform="translate(27.08 380.73) rotate(-76.77)"></circle><path class="cls-8" d="M264.53,173.27a10.69,10.69,0,1,1-10.69-10.69A10.68,10.68,0,0,1,264.53,173.27Z"></path><rect class="cls-7" x="221.1" y="67.82" width="43.86" height="43.86" rx="4.8"></rect><path class="cls-8" d="M257.07,67.82H246.86q-6.06,6-12.09,12c-4.32,4.33-8.67,8.62-12.93,13l-.74.77v10.23a7.84,7.84,0,0,0,2.93,6.09l.83-.81,6.73-6.53c4.39-4.27,8.67-8.63,13-13q9.36-9.36,18.56-18.86A7.83,7.83,0,0,0,257.07,67.82Z"></path><path class="cls-8" d="M232.37,67.82c-3.72,3.9-7.49,7.75-11.27,11.59v7.28c6.44-6.36,12.9-12.7,19.51-18.87Z"></path><path class="cls-9" d="M233,120.86c-2.29,0-4.57,0-6.85,0a2.5,2.5,0,0,0-1.28.34,2.47,2.47,0,0,0-.65.46,2.69,2.69,0,0,0-.33.41,2.49,2.49,0,0,0-.47,1.52,3,3,0,0,0,.64,1.7,2.57,2.57,0,0,0,2.09,1c2.28.06,4.56,0,6.85,0a2.79,2.79,0,0,0,2.76-2.76A2.82,2.82,0,0,0,233,120.86Z"></path><path class="cls-9" d="M276.38,102.61a4.6,4.6,0,0,0-.67-2.35c0-.07-.07-.14-.11-.2a3.07,3.07,0,0,0-.28-.35,4,4,0,0,0-.79-1.17,3.9,3.9,0,0,0-2.72-1.13,4,4,0,0,0-3.48,2.26,4.61,4.61,0,0,0-1.1,2.94c0,1.55-.08,3.14,0,4.7v2.27a4.76,4.76,0,0,0,.67,2.33l.11.21a4.14,4.14,0,0,0,.56.68,4.55,4.55,0,0,0,6.45,0,4.73,4.73,0,0,0,1.34-3.22v-2.27C276.46,105.75,276.39,104.16,276.38,102.61Z"></path><path class="cls-8" d="M286.12,134.85a3.85,3.85,0,0,0-1.1-2.66,3.56,3.56,0,0,0-.6-.47,1.92,1.92,0,0,0-.22-.18,3,3,0,0,0-1.84-.57,3.54,3.54,0,0,0-2.06.78,3.67,3.67,0,0,0-1.69,3.1c0,2.79,0,5.59,0,8.38a3.91,3.91,0,0,0,1.11,2.68,3.79,3.79,0,0,0,6.47-2.68C286.15,140.44,286.14,137.64,286.12,134.85Z"></path><path class="cls-8" d="M142.6,132.82l-21.4-10.51a2,2,0,0,1-1.16-1.85V89.13a2.07,2.07,0,0,1,3-1.85l21.4,10.51a2.08,2.08,0,0,1,1.15,1.85V131A2.06,2.06,0,0,1,142.6,132.82Z"></path><path class="cls-8" d="M154.55,132.82,176,122.31a2,2,0,0,0,1.16-1.85V89.13a2.07,2.07,0,0,0-3-1.85l-21.4,10.51a2.07,2.07,0,0,0-1.16,1.85V131A2.06,2.06,0,0,0,154.55,132.82Z"></path><path class="cls-8" d="M147.66,70.73,126.82,81a2.07,2.07,0,0,0,0,3.71l20.84,10.24a2.08,2.08,0,0,0,1.82,0l20.85-10.24a2.07,2.07,0,0,0,0-3.71L149.48,70.73A2,2,0,0,0,147.66,70.73Z"></path><path class="cls-8" d="M131.55,72.62c-10.13-.12-20.27-.05-30.41,0a.95.95,0,0,0,0,1.89c10.14,0,20.28.09,30.41,0a.91.91,0,0,0,0-1.82Z"></path><path class="cls-8" d="M114.56,81.39H97.11a1.08,1.08,0,0,0-.61.2h-.68a.88.88,0,0,0,0,1.76h.68a1,1,0,0,0,.61.2h17.45A1.08,1.08,0,0,0,114.56,81.39Z"></path><path class="cls-8" d="M135.06,133.72l-15.55,0a.9.9,0,0,0,0,1.79l15.55,0A.92.92,0,0,0,135.06,133.72Z"></path><path class="cls-8" d="M118.78,125.16c-9.31,0-18.62,0-27.93,0a1,1,0,0,0,0,2c9.31,0,18.62,0,27.93,0A1,1,0,0,0,118.78,125.16Z"></path><path class="cls-8" d="M112.31,112.6h-.64c-4,0-8.06,0-12.09,0a.87.87,0,0,0-.9.94.86.86,0,0,0,.9.93c4,0,8.06,0,12.09,0h.64a1,1,0,0,0,0-1.9Z"></path><path class="cls-8" d="M112.82,96.27c-8.51,0-17,.13-25.51.14a.86.86,0,0,0,0,1.71c8.5,0,17,.14,25.51.14A1,1,0,0,0,112.82,96.27Z"></path></g></svg>