<svg xmlns="http://www.w3.org/2000/svg" viewBox="0 0 350.04 281.87" width="532" height="532"><defs><style>.cls-1{fill:#ffffff;}.cls-2{fill:#ffffff;}.cls-3{fill:#ffffff;}.cls-4{fill:#ffffff;}.cls-5{fill:#eecb6c;}.cls-6{fill:#d9aa53;}.cls-7{fill:#d9aa53;}.cls-8{fill:#eecb6c;}</style></defs><g id="OBJECTS"><ellipse class="cls-1" cx="172.17" cy="154.06" rx="169.83" ry="90.43"></ellipse><path class="cls-2" d="M172.17,230c-43,0-83.26-8.8-113.29-24.79C32.14,191,16.8,172.35,16.8,154.06s15.34-36.95,42.08-51.19c30-16,70.26-24.79,113.29-24.79s83.27,8.8,113.3,24.79c26.74,14.24,42.08,32.9,42.08,51.19S312.21,191,285.47,205.25C255.44,221.24,215.21,230,172.17,230Zm0-150c-42.72,0-82.63,8.72-112.38,24.56-26.1,13.9-41.06,31.94-41.06,49.49s15,35.59,41.06,49.49c29.75,15.84,69.66,24.56,112.38,24.56s82.64-8.72,112.39-24.56c26.09-13.9,41.06-31.94,41.06-49.49s-15-35.59-41.06-49.49C254.81,88.73,214.9,80,172.17,80Z"></path><ellipse class="cls-2" cx="288.29" cy="201.37" rx="18.44" ry="13.11" transform="translate(-61.89 169.21) rotate(-29.69)"></ellipse><path class="cls-3" d="M120.35,102.84a2.87,2.87,0,0,0-.73-1.26l-.58-.44a2.78,2.78,0,0,0-1.44-.39,2.09,2.09,0,0,0-1.1.24,2.31,2.31,0,0,0-.92.59,2.21,2.21,0,0,0-.59.92,2.09,2.09,0,0,0-.24,1.1l.1.76a2.87,2.87,0,0,0,.73,1.26l.58.45a2.83,2.83,0,0,0,1.44.39,2.2,2.2,0,0,0,1.1-.25,2.56,2.56,0,0,0,1.51-1.51,2.17,2.17,0,0,0,.25-1.1C120.42,103.35,120.39,103.1,120.35,102.84Z"></path><path class="cls-3" d="M236.54,102.84a2.87,2.87,0,0,0-.73-1.26l-.58-.44a2.81,2.81,0,0,0-1.44-.39,2.09,2.09,0,0,0-1.1.24,2.31,2.31,0,0,0-.92.59,3.22,3.22,0,0,0-.84,2l.11.76a2.87,2.87,0,0,0,.73,1.26l.58.45a2.78,2.78,0,0,0,1.44.39,2.2,2.2,0,0,0,1.1-.25,2.11,2.11,0,0,0,.92-.59,2.15,2.15,0,0,0,.59-.92,2.07,2.07,0,0,0,.24-1.1C236.61,103.35,236.58,103.1,236.54,102.84Z"></path><path class="cls-4" d="M158.37,105.55c1.37,4.65,2.48,6.21,5.78,8.13-3.3,1.93-4.41,3.48-5.78,8.13-1.37-4.65-2.47-6.2-5.78-8.13C155.9,111.76,157,110.2,158.37,105.55ZM173,121.08c2,1.18,2.72,2.15,3.57,5,.84-2.86,1.53-3.83,3.56-5-2-1.19-2.72-2.15-3.56-5C175.7,118.93,175,119.89,173,121.08ZM163.21,99.4c4.73,2.75,6.31,5,8.27,11.63,2-6.65,3.55-8.88,8.28-11.63-4.73-2.76-6.32-5-8.28-11.64C169.52,94.41,167.94,96.64,163.21,99.4Z"></path><path class="cls-5" d="M233.32,50.86c-6-5.13-13.79-8.87-21.82-7.4s-15,7.5-20.67,13a95.46,95.46,0,0,0-14.36,17.39c-.5.78-1,1.61-1.56,2.46-2.25-2.56-4.58-4.82-6.43-6.54-7.39-6.88-16.35-14.62-25.44-19.08-8.85-4.33-18.56-3.41-24.41,4.94-5.23,7.47-4.66,16.82.48,24.21,6.44,9.24,17.37,12.92,27.79,15.59,4.72,1.21,13.87,4.28,21.16,4.08a6.17,6.17,0,0,0,10.44.82c.11-.14.21-.3.32-.44.15.11.27.24.43.34,7.81,4.69,17.86,1,26.11-1,8-1.86,15.53-4.38,22.39-9,6.46-4.38,12.44-10.68,14.18-18.5C243.8,63.31,239.5,56.18,233.32,50.86ZM154.1,83.32c-9.54-1.09-27.06-4.25-28.92-16.06-1.24-7.89,6.45-9.72,12.33-6.82,5.47,2.7,10.67,7.51,15.05,11.73a117.52,117.52,0,0,1,10.13,11.41C159.15,83.46,155.91,83.53,154.1,83.32Zm69.24-12.19a33.16,33.16,0,0,1-12.27,8.29c-6.82,2.8-16.9,3-24.64,6a85.1,85.1,0,0,1,8.64-12.23c5.94-7,16.93-19.87,26.46-12.45C225.52,63.86,226.84,67.14,223.34,71.13Z"></path><rect class="cls-6" x="102.07" y="93.01" width="147.8" height="38.49" rx="9.16"></rect><rect class="cls-6" x="113.24" y="116.1" width="125.48" height="95.07" rx="9.16"></rect><polygon class="cls-7" points="239.17 131.5 113.24 131.5 113.24 153.24 239.17 131.5"></polygon><rect class="cls-5" x="163.57" y="93.01" width="24.82" height="118.17"></rect><path class="cls-3" d="M153.24,102.84a2.87,2.87,0,0,0-.73-1.26l-.58-.44a2.78,2.78,0,0,0-1.44-.39,2.09,2.09,0,0,0-1.1.24,2.31,2.31,0,0,0-.92.59,2.21,2.21,0,0,0-.59.92,2.09,2.09,0,0,0-.24,1.1c0,.26.06.51.1.76a2.87,2.87,0,0,0,.73,1.26l.58.45a2.83,2.83,0,0,0,1.44.39,2.2,2.2,0,0,0,1.1-.25,2.56,2.56,0,0,0,1.51-1.51,2.17,2.17,0,0,0,.25-1.1C153.31,103.35,153.28,103.1,153.24,102.84Z"></path><path class="cls-3" d="M135.73,118.22A2.78,2.78,0,0,0,135,117l-.58-.45a2.78,2.78,0,0,0-1.44-.39,2.2,2.2,0,0,0-1.1.25,2,2,0,0,0-.91.59,2.13,2.13,0,0,0-.6.91,2.21,2.21,0,0,0-.24,1.1l.1.76A2.78,2.78,0,0,0,131,121l.57.45a2.83,2.83,0,0,0,1.44.39,2.17,2.17,0,0,0,1.1-.25,2.56,2.56,0,0,0,1.51-1.51,2.17,2.17,0,0,0,.25-1.1C135.79,118.72,135.76,118.47,135.73,118.22Z"></path><path class="cls-3" d="M203.65,102.84a2.87,2.87,0,0,0-.73-1.26l-.58-.44a2.81,2.81,0,0,0-1.44-.39,2.09,2.09,0,0,0-1.1.24,2.31,2.31,0,0,0-.92.59,3.22,3.22,0,0,0-.84,2c0,.26.07.51.11.76a2.87,2.87,0,0,0,.73,1.26l.58.45a2.78,2.78,0,0,0,1.44.39,2.2,2.2,0,0,0,1.1-.25,2.11,2.11,0,0,0,.92-.59,2.15,2.15,0,0,0,.59-.92,2.07,2.07,0,0,0,.24-1.1Z"></path><path class="cls-3" d="M219,118.22a2.76,2.76,0,0,0-.73-1.26l-.58-.45a2.78,2.78,0,0,0-1.44-.39,2.2,2.2,0,0,0-1.1.25,2.89,2.89,0,0,0-1.75,2.6c0,.26.07.51.1.76a2.76,2.76,0,0,0,.73,1.26l.58.45a2.83,2.83,0,0,0,1.44.39,2.2,2.2,0,0,0,1.1-.25,2.56,2.56,0,0,0,1.51-1.51,2.17,2.17,0,0,0,.25-1.1Z"></path><path class="cls-3" d="M200.08,146.46a2.83,2.83,0,0,0-.74-1.26l-.57-.45a2.84,2.84,0,0,0-1.45-.39,2.2,2.2,0,0,0-1.1.25,2,2,0,0,0-.91.59,3.22,3.22,0,0,0-.84,2c0,.25.07.5.1.76a2.89,2.89,0,0,0,.74,1.26l.57.44a2.83,2.83,0,0,0,1.44.39,2.07,2.07,0,0,0,1.1-.24,2.24,2.24,0,0,0,.92-.59,2.11,2.11,0,0,0,.59-.92,2.2,2.2,0,0,0,.25-1.1Z"></path><path class="cls-3" d="M233,146.46a2.83,2.83,0,0,0-.74-1.26l-.57-.45a2.84,2.84,0,0,0-1.45-.39,2.2,2.2,0,0,0-1.1.25,2,2,0,0,0-.91.59,3.22,3.22,0,0,0-.84,2l.1.76a2.89,2.89,0,0,0,.74,1.26l.57.44a2.83,2.83,0,0,0,1.44.39,2.07,2.07,0,0,0,1.1-.24,2.24,2.24,0,0,0,.92-.59,2.11,2.11,0,0,0,.59-.92,2.2,2.2,0,0,0,.25-1.1C233,147,233,146.71,233,146.46Z"></path><path class="cls-3" d="M215.45,161.83a3,3,0,0,0-.73-1.26l-.58-.44a2.83,2.83,0,0,0-1.44-.39,2.07,2.07,0,0,0-1.1.24,2.15,2.15,0,0,0-.92.59,2.11,2.11,0,0,0-.59.92,2.2,2.2,0,0,0-.25,1.1c0,.25.07.51.1.76a2.89,2.89,0,0,0,.74,1.26l.58.45a2.87,2.87,0,0,0,1.44.38,2.09,2.09,0,0,0,1.1-.24,2.21,2.21,0,0,0,.92-.59,2.31,2.31,0,0,0,.59-.92,2.19,2.19,0,0,0,.24-1.1Z"></path><path class="cls-3" d="M200.08,180.06a2.89,2.89,0,0,0-.74-1.26l-.57-.44a2.84,2.84,0,0,0-1.45-.39,3.08,3.08,0,0,0-2,.83,3.22,3.22,0,0,0-.84,2c0,.26.07.51.1.76a2.78,2.78,0,0,0,.74,1.26l.57.45a2.83,2.83,0,0,0,1.44.39,2.17,2.17,0,0,0,1.1-.25,2.56,2.56,0,0,0,1.51-1.51,2.17,2.17,0,0,0,.25-1.1Z"></path><path class="cls-3" d="M233,180.06a2.89,2.89,0,0,0-.74-1.26l-.57-.44a2.84,2.84,0,0,0-1.45-.39,3.08,3.08,0,0,0-2,.83,3.22,3.22,0,0,0-.84,2l.1.76a2.78,2.78,0,0,0,.74,1.26l.57.45a2.83,2.83,0,0,0,1.44.39,2.17,2.17,0,0,0,1.1-.25,2.56,2.56,0,0,0,1.51-1.51,2.17,2.17,0,0,0,.25-1.1C233,180.57,233,180.32,233,180.06Z"></path><path class="cls-3" d="M215.45,195.44a2.85,2.85,0,0,0-.73-1.26l-.58-.45a2.83,2.83,0,0,0-1.44-.39,2.17,2.17,0,0,0-1.1.25,2.56,2.56,0,0,0-1.51,1.51,2.17,2.17,0,0,0-.25,1.1c0,.25.07.5.1.75a2.78,2.78,0,0,0,.74,1.26l.58.45a2.78,2.78,0,0,0,1.44.39,2.2,2.2,0,0,0,1.1-.25,2.11,2.11,0,0,0,.92-.59,3.08,3.08,0,0,0,.83-2Z"></path><path class="cls-3" d="M126.43,146.46a2.81,2.81,0,0,0-.73-1.26l-.58-.45a2.83,2.83,0,0,0-1.44-.39,2.2,2.2,0,0,0-1.1.25,2.56,2.56,0,0,0-1.51,1.51,2.17,2.17,0,0,0-.25,1.1c0,.25.07.5.11.76a2.87,2.87,0,0,0,.73,1.26l.58.44a2.78,2.78,0,0,0,1.44.39,2.09,2.09,0,0,0,1.1-.24,2.31,2.31,0,0,0,.92-.59,2.21,2.21,0,0,0,.59-.92,2.09,2.09,0,0,0,.24-1.1C126.5,147,126.47,146.71,126.43,146.46Z"></path><path class="cls-3" d="M159.32,146.46a2.81,2.81,0,0,0-.73-1.26l-.58-.45a2.83,2.83,0,0,0-1.44-.39,2.2,2.2,0,0,0-1.1.25,2.11,2.11,0,0,0-.92.59,2.15,2.15,0,0,0-.59.92,2.17,2.17,0,0,0-.25,1.1c0,.25.07.5.11.76a2.87,2.87,0,0,0,.73,1.26l.58.44a2.78,2.78,0,0,0,1.44.39,2.09,2.09,0,0,0,1.1-.24,2.31,2.31,0,0,0,.92-.59,2.21,2.21,0,0,0,.59-.92,2.09,2.09,0,0,0,.24-1.1C159.39,147,159.36,146.71,159.32,146.46Z"></path><path class="cls-3" d="M141.8,161.83a2.87,2.87,0,0,0-.73-1.26l-.58-.44a2.78,2.78,0,0,0-1.44-.39,2.09,2.09,0,0,0-1.1.24,2.56,2.56,0,0,0-1.51,1.51,2.09,2.09,0,0,0-.24,1.1c0,.25.06.51.1.76a2.87,2.87,0,0,0,.73,1.26l.58.45a2.92,2.92,0,0,0,1.44.38,2.09,2.09,0,0,0,1.1-.24,2.15,2.15,0,0,0,.92-.59,2.11,2.11,0,0,0,.59-.92,2.2,2.2,0,0,0,.25-1.1C141.87,162.34,141.84,162.08,141.8,161.83Z"></path><path class="cls-3" d="M126.43,180.06a2.87,2.87,0,0,0-.73-1.26c-.2-.14-.39-.29-.58-.44a2.83,2.83,0,0,0-1.44-.39,2.19,2.19,0,0,0-1.1.24,2.24,2.24,0,0,0-.92.59,2.11,2.11,0,0,0-.59.92,2.2,2.2,0,0,0-.25,1.1c0,.26.07.51.11.76a2.76,2.76,0,0,0,.73,1.26l.58.45a2.78,2.78,0,0,0,1.44.39,2.2,2.2,0,0,0,1.1-.25,2.11,2.11,0,0,0,.92-.59,2.15,2.15,0,0,0,.59-.92,2.07,2.07,0,0,0,.24-1.1C126.5,180.57,126.47,180.32,126.43,180.06Z"></path><path class="cls-3" d="M159.32,180.06a2.87,2.87,0,0,0-.73-1.26l-.58-.44a2.83,2.83,0,0,0-1.44-.39,2.19,2.19,0,0,0-1.1.24,2.31,2.31,0,0,0-.92.59,3.22,3.22,0,0,0-.84,2c0,.26.07.51.11.76a2.76,2.76,0,0,0,.73,1.26l.58.45a2.78,2.78,0,0,0,1.44.39,2.2,2.2,0,0,0,1.1-.25,2.11,2.11,0,0,0,.92-.59,2.15,2.15,0,0,0,.59-.92,2.07,2.07,0,0,0,.24-1.1C159.39,180.57,159.36,180.32,159.32,180.06Z"></path><path class="cls-3" d="M141.8,195.44a2.76,2.76,0,0,0-.73-1.26l-.58-.45a2.78,2.78,0,0,0-1.44-.39,2.2,2.2,0,0,0-1.1.25,2.11,2.11,0,0,0-.92.59,2.15,2.15,0,0,0-.59.92,2.07,2.07,0,0,0-.24,1.1c0,.25.06.5.1.75a2.76,2.76,0,0,0,.73,1.26l.58.45a2.83,2.83,0,0,0,1.44.39,2.2,2.2,0,0,0,1.1-.25,2.06,2.06,0,0,0,.92-.59,2,2,0,0,0,.59-.91,2.2,2.2,0,0,0,.25-1.1C141.87,195.94,141.84,195.69,141.8,195.44Z"></path><path class="cls-4" d="M73.34,77.23H40.63a6.71,6.71,0,0,0-6.7,6.71v32.71a6.7,6.7,0,0,0,6.7,6.7H59.47c0,.06,0,.12.07.18l5.35,9.25a2.23,2.23,0,0,0,3.86,0l5.35-9.25a2.34,2.34,0,0,0,.09-.24,6.71,6.71,0,0,0,5.86-6.64V83.94A6.71,6.71,0,0,0,73.34,77.23Z"></path><path class="cls-8" d="M324.14,99.78H291.43a6.71,6.71,0,0,0-6.71,6.7v32.71a6.71,6.71,0,0,0,6.71,6.71h1.05c0,.06,0,.12.07.18l5.34,9.25a2.23,2.23,0,0,0,3.87,0l5.34-9.25a1.42,1.42,0,0,0,.08-.18h17a6.7,6.7,0,0,0,6.7-6.71V106.48A6.7,6.7,0,0,0,324.14,99.78Z"></path><path class="cls-3" d="M324.32,115.32c-2-4.7-7.43-5-11.45-2.91a15.25,15.25,0,0,0-5.13,4.31A31.75,31.75,0,0,0,304,112c-2.31-2.37-6-3.8-8.75-1.2a13,13,0,0,0-3.71,8.36c-.1,3.07,1.76,6.19,3.45,8.65,2.37,3.44,5.76,7.52,9.61,9.4,2.28,1.1,3.55,1,5.43-.55,3.54-2.89,6.67-6.24,10-9.34S326.27,120,324.32,115.32Z"></path><path class="cls-3" d="M49.29,94.23a4,4,0,0,0-4.39-2.91,4.05,4.05,0,0,0-3.46,4c-.07,4.38-.09,8.75-.13,13.13a3.72,3.72,0,0,0,.11.88,5.46,5.46,0,0,0,.59,2.33,4,4,0,0,0,4.45,2c2.42-.65,2.85-2.9,2.93-5.12C49.56,103.91,50.44,98.76,49.29,94.23Z"></path><path class="cls-3" d="M69.85,106.66a4.88,4.88,0,0,0,.55-.31c.07,0,1.31-1.1,1.11-1.17l0-.07-.18.19c0-.09.37-.45.47-.65a3.67,3.67,0,0,0,.3-2.68,4.23,4.23,0,0,0-2.32-2.54A3.24,3.24,0,0,0,71,97.76a2.58,2.58,0,0,0,.06-.73c0-.09,0-.19,0-.31a2.87,2.87,0,0,0-.32-1.36c-.77-1.45-2.51-1.76-4-2a19.54,19.54,0,0,0-3.51-.09c.08-.16.17-.3.24-.46A16.15,16.15,0,0,0,65,87.94a7.51,7.51,0,0,0,0-3.06,4.27,4.27,0,0,0-1-1.91,2.77,2.77,0,0,0-3.41-.54,4.26,4.26,0,0,0-1.77,3.37,13.48,13.48,0,0,1-.66,2.59c-.09.21-.19.41-.29.6a10.83,10.83,0,0,1-.74,1.23l-.33.45-.05.06a12.27,12.27,0,0,1-.91,1l-.48.43c-.24.17-.48.33-.74.48l-.09.05a2.9,2.9,0,0,0-1.59.87c-1.7,1.88-1.18,5-1.15,7.34,0,3-.51,6-.18,9,.55,5,6.58,4.65,10.4,4.71a15.75,15.75,0,0,0,8.12-1.93,3.17,3.17,0,0,0,.72-5.07A12,12,0,0,0,69.85,106.66Z"></path></g></svg>