<svg xmlns="http://www.w3.org/2000/svg" viewBox="0 0 350.04 281.87"><defs><style>.cls-1{fill:#1f994a;}.cls-2{fill:#fdece9;}.cls-3{fill:#f7941d;}.cls-4{fill:#e5305b;}.cls-5{fill:#f4e8d2;}.cls-6{fill:#f1daae;}.cls-7{fill:#f12525;}.cls-8{fill:#ff3600;}.cls-9{fill:#606060;}.cls-10{fill:#16423d;}.cls-11{fill:#281d1b;}.cls-12{fill:none;stroke:#281d1b;stroke-miterlimit:10;stroke-width:0.95px;}.cls-13{fill:#fcbf13;}.cls-14{fill:#badaf4;}.cls-15{fill:#fff;}.cls-16{fill:#90b124;}</style></defs><g id="objects-2" data-name="objects"><rect class="cls-1" x="16.45" y="69.73" width="308.69" height="163.56" rx="10" transform="translate(341.6 303.03) rotate(180)"/><path class="cls-2" d="M298.3,219.92a14.31,14.31,0,0,1-2.43-.2,14.94,14.94,0,0,1-2.26-.55,13.2,13.2,0,0,1-2.14-.92A11.64,11.64,0,0,1,289.6,217a9.85,9.85,0,0,1-1.2-1.13,14.11,14.11,0,0,1-19.71,0,14.17,14.17,0,0,1-19.72,0,14.18,14.18,0,0,1-19.74,0,14.18,14.18,0,0,1-19.73,0,14.19,14.19,0,0,1-19.73,0,14.2,14.2,0,0,1-19.74,0,14.19,14.19,0,0,1-19.73,0,14.18,14.18,0,0,1-19.73,0,14.17,14.17,0,0,1-19.72,0,14.2,14.2,0,0,1-19.74,0,14.19,14.19,0,0,1-19.73,0,14.1,14.1,0,0,1-19.7,0A12.72,12.72,0,0,1,50.46,217a10.65,10.65,0,0,1-1.88,1.23,14.1,14.1,0,0,1-2.08.9,15.4,15.4,0,0,1-2.31.56,15.11,15.11,0,0,1-4.84,0,14.61,14.61,0,0,1-2.25-.55,14.12,14.12,0,0,1-2.15-.92A11.86,11.86,0,0,1,33.08,217a10.27,10.27,0,0,1-1.52-1.5,8.82,8.82,0,0,1-1.13-1.72,8.66,8.66,0,0,1-.7-1.86,7.34,7.34,0,0,1-.24-1.93,7.21,7.21,0,0,1,.25-1.94,8.53,8.53,0,0,1,.68-1.84,10.37,10.37,0,0,1,1.14-1.71A9.45,9.45,0,0,1,33.08,203,12.6,12.6,0,0,1,35,201.78l.19-.11c-3.49-1.8-5.65-4.9-5.65-8.33s2.15-6.54,5.64-8.34c-3.49-1.81-5.64-4.92-5.64-8.34s2.15-6.54,5.63-8.33c-3.48-1.81-5.63-4.92-5.63-8.34s2.15-6.54,5.64-8.34c-3.49-1.81-5.64-4.92-5.64-8.35s2.15-6.53,5.63-8.33c-3.48-1.8-5.63-4.91-5.63-8.34s2.15-6.53,5.64-8.34c-3.49-1.8-5.64-4.91-5.64-8.32s2.16-6.54,5.65-8.34l-.19-.1a12.6,12.6,0,0,1-1.87-1.23,9.13,9.13,0,0,1-3.59-7,7.39,7.39,0,0,1,.25-2,8,8,0,0,1,.68-1.82,10.47,10.47,0,0,1,1.14-1.72,9.87,9.87,0,0,1,1.52-1.51,13.81,13.81,0,0,1,1.85-1.23,14.37,14.37,0,0,1,2.12-.92,15.31,15.31,0,0,1,2.34-.56,14.34,14.34,0,0,1,11.08,2.72,9,9,0,0,1,1.18,1.14,14.1,14.1,0,0,1,19.73-.07,14.19,14.19,0,0,1,19.73,0,14.2,14.2,0,0,1,19.74,0,14.17,14.17,0,0,1,19.72,0,14.16,14.16,0,0,1,19.73,0,14.18,14.18,0,0,1,19.73,0,14.2,14.2,0,0,1,19.74,0,14.19,14.19,0,0,1,19.73,0,14.2,14.2,0,0,1,19.74,0,14.17,14.17,0,0,1,19.72,0,14.18,14.18,0,0,1,19.73,0,13.46,13.46,0,0,1,9.88-4,13.32,13.32,0,0,1,9.83,4,10.91,10.91,0,0,1,1.2-1.12,12.8,12.8,0,0,1,4-2.15,15.28,15.28,0,0,1,7.12-.56,15,15,0,0,1,2.3.55,14.17,14.17,0,0,1,2.12.92A12.63,12.63,0,0,1,307,86.28a10.09,10.09,0,0,1,1.54,1.52,9.89,9.89,0,0,1,1.13,1.71,9.66,9.66,0,0,1,.7,1.81,9,9,0,0,1,.25,2,9.15,9.15,0,0,1-3.62,7,12.6,12.6,0,0,1-1.87,1.23l-.18.09c3.5,1.8,5.67,4.91,5.67,8.35s-2.17,6.52-5.66,8.32c3.49,1.81,5.66,4.92,5.66,8.34s-2.16,6.54-5.66,8.34c3.5,1.8,5.66,4.9,5.66,8.33s-2.17,6.54-5.66,8.35c3.49,1.8,5.66,4.92,5.66,8.34s-2.16,6.53-5.66,8.34c3.5,1.79,5.66,4.9,5.66,8.33s-2.17,6.53-5.66,8.34c3.49,1.8,5.66,4.92,5.66,8.34s-2.17,6.54-5.67,8.34A12,12,0,0,1,307,203a10.09,10.09,0,0,1,1.54,1.52,9.83,9.83,0,0,1,1.13,1.7,9.21,9.21,0,0,1,.7,1.84,8.68,8.68,0,0,1,.22,1.94,7.79,7.79,0,0,1-.94,3.8,8.17,8.17,0,0,1-1.12,1.71A10.33,10.33,0,0,1,307,217a10.89,10.89,0,0,1-1.88,1.24,13.65,13.65,0,0,1-2.08.9,14.44,14.44,0,0,1-2.35.56A13.35,13.35,0,0,1,298.3,219.92Zm-9.9-6.62h0a1.17,1.17,0,0,1,1,.48,6.35,6.35,0,0,0,.54.74,8.48,8.48,0,0,0,1.24,1.23,9,9,0,0,0,1.53,1,11.18,11.18,0,0,0,1.75.76,12.71,12.71,0,0,0,5.77.45,13.13,13.13,0,0,0,1.93-.46,12.53,12.53,0,0,0,1.71-.74,8.8,8.8,0,0,0,1.53-1,9.07,9.07,0,0,0,1.25-1.23,6.27,6.27,0,0,0,.91-1.4,6.3,6.3,0,0,0,.78-3.11,7,7,0,0,0-.18-1.58,7.71,7.71,0,0,0-1.51-2.91,7.68,7.68,0,0,0-1.25-1.23,10.66,10.66,0,0,0-3.32-1.78.92.92,0,0,1-.7-.83.91.91,0,0,1,.7-.83c3.82-1.26,6.28-4.2,6.28-7.51s-2.46-6.25-6.26-7.51a.92.92,0,0,1-.69-.83.9.9,0,0,1,.69-.83c3.8-1.27,6.26-4.22,6.26-7.51s-2.46-6.25-6.26-7.5a.9.9,0,0,1-.69-.83.92.92,0,0,1,.69-.83c3.8-1.27,6.26-4.21,6.26-7.51s-2.46-6.25-6.26-7.51a.85.85,0,0,1,0-1.67c3.8-1.26,6.26-4.21,6.26-7.51s-2.46-6.24-6.26-7.49a.91.91,0,0,1-.69-.83.9.9,0,0,1,.69-.83c3.8-1.27,6.26-4.22,6.26-7.52s-2.46-6.24-6.26-7.51a.9.9,0,0,1-.69-.83.92.92,0,0,1,.69-.83c3.8-1.26,6.26-4.2,6.26-7.49s-2.46-6.26-6.28-7.51a.91.91,0,0,1-.69-.84.92.92,0,0,1,.71-.83,12.67,12.67,0,0,0,1.77-.76,9.43,9.43,0,0,0,1.53-1,7.47,7.47,0,0,0,3-5.74,7.83,7.83,0,0,0-.2-1.6,7.37,7.37,0,0,0-.58-1.48,7.13,7.13,0,0,0-.93-1.41,8.11,8.11,0,0,0-1.25-1.23,11.26,11.26,0,0,0-1.55-1,13.63,13.63,0,0,0-1.72-.74,12.7,12.7,0,0,0-5.8-.44,11.83,11.83,0,0,0-1.9.45,12,12,0,0,0-1.72.75,10.42,10.42,0,0,0-1.53,1A7.11,7.11,0,0,0,290,88.78a6.15,6.15,0,0,0-.55.74,1.18,1.18,0,0,1-1,.48h0a1.16,1.16,0,0,1-1-.48,11.27,11.27,0,0,0-17.75,0,1.32,1.32,0,0,1-2,0,11.32,11.32,0,0,0-17.76,0,1.21,1.21,0,0,1-1,.48h0a1.18,1.18,0,0,1-1-.48,11.31,11.31,0,0,0-17.75,0,1.32,1.32,0,0,1-2,0,11.32,11.32,0,0,0-17.76,0,1.2,1.2,0,0,1-1,.48h0a1.18,1.18,0,0,1-1-.48,11.33,11.33,0,0,0-17.77,0,1.18,1.18,0,0,1-1,.48h0a1.18,1.18,0,0,1-1-.48,11.32,11.32,0,0,0-17.76,0,1.33,1.33,0,0,1-2,0,11.33,11.33,0,0,0-17.77,0,1.27,1.27,0,0,1-1,.48,1.18,1.18,0,0,1-1-.48,11.32,11.32,0,0,0-17.76,0,1.21,1.21,0,0,1-1,.48h0a1.21,1.21,0,0,1-1-.48,11.3,11.3,0,0,0-17.74,0,1.32,1.32,0,0,1-2,0,11.32,11.32,0,0,0-17.76,0,1.33,1.33,0,0,1-2,0,11.32,11.32,0,0,0-17.76,0,1.32,1.32,0,0,1-2,0,10.57,10.57,0,0,0-8.87-4.3,10.5,10.5,0,0,0-8.89,4.4,1.16,1.16,0,0,1-1,.48h0a1.16,1.16,0,0,1-1-.48,8.36,8.36,0,0,0-1.77-2,11.81,11.81,0,0,0-12.69-1,11,11,0,0,0-1.53,1,7.48,7.48,0,0,0-1.23,1.22,9,9,0,0,0-1,1.42,7.55,7.55,0,0,0-.55,1.49,6.09,6.09,0,0,0-.21,1.59A7.46,7.46,0,0,0,34.66,99a9.43,9.43,0,0,0,1.53,1,12.24,12.24,0,0,0,1.75.75,1,1,0,0,1,.71.85.89.89,0,0,1-.66.83c-3.81,1.25-6.27,4.2-6.27,7.51s2.45,6.23,6.24,7.49a.92.92,0,0,1,.69.83.9.9,0,0,1-.69.83c-3.79,1.26-6.24,4.21-6.24,7.51s2.45,6.26,6.24,7.52a.89.89,0,0,1,.69.83.91.91,0,0,1-.69.83c-3.79,1.24-6.24,4.18-6.24,7.49s2.45,6.25,6.24,7.51a.85.85,0,0,1,0,1.67c-3.79,1.26-6.24,4.2-6.24,7.51s2.45,6.25,6.24,7.51a.84.84,0,0,1,0,1.66c-3.79,1.25-6.24,4.19-6.24,7.5s2.45,6.25,6.24,7.51a.9.9,0,0,1,.69.83.92.92,0,0,1-.69.83c-3.79,1.26-6.24,4.21-6.24,7.51s2.46,6.24,6.26,7.5a.9.9,0,0,1,.69.87,1,1,0,0,1-.78.82,10,10,0,0,0-1.67.74,9.56,9.56,0,0,0-1.56,1,7.44,7.44,0,0,0-1.23,1.21,8.07,8.07,0,0,0-1,1.43,7,7,0,0,0-.55,1.5,5.91,5.91,0,0,0-.21,1.58,6,6,0,0,0,.2,1.57,7,7,0,0,0,.58,1.54,7.7,7.7,0,0,0,.92,1.4,9,9,0,0,0,1.24,1.23,9.85,9.85,0,0,0,1.53,1,11.84,11.84,0,0,0,1.77.76,10.84,10.84,0,0,0,1.84.44,12.11,12.11,0,0,0,3.94,0,13.4,13.4,0,0,0,1.9-.46,11.39,11.39,0,0,0,1.71-.75,8.2,8.2,0,0,0,1.53-1,9.38,9.38,0,0,0,1.28-1.25c.17-.21.35-.47.52-.73a1.16,1.16,0,0,1,1-.49h0a1.18,1.18,0,0,1,1,.48,10.52,10.52,0,0,0,8.86,4.36,10.57,10.57,0,0,0,8.87-4.3,1.32,1.32,0,0,1,2,0,11.32,11.32,0,0,0,17.76,0,1.33,1.33,0,0,1,2,0,11.32,11.32,0,0,0,17.76,0,1.32,1.32,0,0,1,2,0,11.3,11.3,0,0,0,17.74,0,1.21,1.21,0,0,1,1-.48h0a1.18,1.18,0,0,1,1,.48,11.32,11.32,0,0,0,17.76,0,1.18,1.18,0,0,1,1-.48h0a1.18,1.18,0,0,1,1,.48,11.33,11.33,0,0,0,17.77,0,1.18,1.18,0,0,1,1-.48h0a1.18,1.18,0,0,1,1,.48,11.32,11.32,0,0,0,17.76,0,1.33,1.33,0,0,1,2,0,11.33,11.33,0,0,0,17.77,0,1.33,1.33,0,0,1,2,0,11.32,11.32,0,0,0,17.76,0,1.21,1.21,0,0,1,1-.48h0a1.18,1.18,0,0,1,1,.48,11.33,11.33,0,0,0,17.77,0,1.18,1.18,0,0,1,1-.48h0a1.18,1.18,0,0,1,1,.48,11.3,11.3,0,0,0,17.74,0,1.32,1.32,0,0,1,2,0,11.27,11.27,0,0,0,17.75,0A1.17,1.17,0,0,1,288.4,213.3Z"/><polygon class="cls-3" points="49.93 69.79 44.08 70.9 49 67.55 46.16 64.71 42.81 69.63 43.92 63.78 39.9 63.78 41.01 69.63 37.66 64.71 34.82 67.55 39.74 70.9 33.89 69.79 33.89 73.81 39.74 72.7 34.82 76.05 37.66 78.89 41.01 73.97 39.9 79.82 43.92 79.82 42.81 73.97 46.16 78.89 49 76.05 44.08 72.7 49.93 73.81 49.93 69.79"/><polygon class="cls-3" points="312.89 221.78 299.8 224.25 310.81 216.74 304.46 210.4 296.95 221.41 299.43 208.31 290.46 208.31 292.94 221.41 285.43 210.4 279.08 216.74 290.09 224.25 277 221.78 277 230.75 290.09 228.27 279.08 235.78 285.43 242.13 292.94 231.12 290.46 244.21 299.43 244.21 296.95 231.12 304.46 242.13 310.81 235.78 299.8 228.27 312.89 230.75 312.89 221.78"/><path class="cls-4" d="M84,52.61a3.15,3.15,0,1,1-3.15-3.15A3.15,3.15,0,0,1,84,52.61Z"/><polygon class="cls-5" points="219.54 69.79 225.4 70.9 220.47 67.55 223.31 64.71 226.67 69.63 225.56 63.78 229.57 63.78 228.46 69.63 231.82 64.71 234.66 67.55 229.73 70.9 235.59 69.79 235.59 73.81 229.73 72.7 234.66 76.05 231.82 78.89 228.46 73.97 229.57 79.82 225.56 79.82 226.67 73.97 223.31 78.89 220.47 76.05 225.4 72.7 219.54 73.81 219.54 69.79"/><path class="cls-6" d="M69.15,60.18H265.73a0,0,0,0,1,0,0v145.4a3.12,3.12,0,0,1-3.12,3.12H72.27a3.12,3.12,0,0,1-3.12-3.12V60.18A0,0,0,0,1,69.15,60.18Z"/><rect class="cls-2" x="81.09" y="77.74" width="91.01" height="91.01"/><path class="cls-7" d="M72.27,45.19H262.61a3.12,3.12,0,0,1,3.12,3.12V60.18a0,0,0,0,1,0,0H69.15a0,0,0,0,1,0,0V48.31A3.12,3.12,0,0,1,72.27,45.19Z"/><path class="cls-8" d="M94.1,52.61A3.15,3.15,0,1,1,91,49.46,3.15,3.15,0,0,1,94.1,52.61Z"/><path class="cls-2" d="M104.21,52.61a3.15,3.15,0,1,1-3.15-3.15A3.15,3.15,0,0,1,104.21,52.61Z"/><rect class="cls-7" x="181.25" y="77.74" width="68.22" height="9.54"/><rect class="cls-9" x="181.25" y="99.85" width="68.22" height="4.77"/><rect class="cls-9" x="181.25" y="109.76" width="68.22" height="4.77"/><rect class="cls-9" x="181.25" y="119.67" width="68.22" height="4.77"/><rect class="cls-9" x="181.25" y="129.59" width="68.22" height="4.77"/><rect class="cls-10" x="181.28" y="150.53" width="68.16" height="17.71" rx="3.87"/><path class="cls-2" d="M190.78,157.38a1.52,1.52,0,0,0-.25-.17,4.12,4.12,0,0,0-.52-.27,3.4,3.4,0,0,0-.68-.24,2.76,2.76,0,0,0-.75-.1,1.44,1.44,0,0,0-.75.17.58.58,0,0,0-.27.51.53.53,0,0,0,.21.43,1.74,1.74,0,0,0,.58.29l.94.27a6.56,6.56,0,0,1,1.37.51,2.3,2.3,0,0,1,.89.75,2.14,2.14,0,0,1,.31,1.22,2.47,2.47,0,0,1-.25,1.17,2,2,0,0,1-.7.78,3.09,3.09,0,0,1-1,.43,4.69,4.69,0,0,1-1.14.13,6,6,0,0,1-1.24-.13,6.25,6.25,0,0,1-1.21-.36,6.66,6.66,0,0,1-1.07-.53l.83-1.67a1.31,1.31,0,0,0,.31.22,6.06,6.06,0,0,0,.63.32,7.63,7.63,0,0,0,.85.3,3.2,3.2,0,0,0,.92.13,1.47,1.47,0,0,0,.78-.16.53.53,0,0,0,.25-.45.55.55,0,0,0-.27-.48,3.32,3.32,0,0,0-.7-.32c-.3-.09-.64-.2-1-.3a6.51,6.51,0,0,1-1.25-.53,2,2,0,0,1-.73-.69,2,2,0,0,1-.24-1,2.55,2.55,0,0,1,.41-1.47,2.58,2.58,0,0,1,1.11-.9,3.82,3.82,0,0,1,1.52-.31,4.6,4.6,0,0,1,1.13.14,7.49,7.49,0,0,1,1,.35,6.82,6.82,0,0,1,.82.43Z"/><path class="cls-2" d="M192.71,161.05v-3.87h1.85v3.45a1.32,1.32,0,0,0,.23.83.73.73,0,0,0,.63.29,1.62,1.62,0,0,0,.49-.08,1.46,1.46,0,0,0,.45-.28,1.72,1.72,0,0,0,.4-.5v-3.71h1.85v4a.6.6,0,0,0,.09.38.39.39,0,0,0,.31.13v1.54a3.08,3.08,0,0,1-.45.08h-.34a1.36,1.36,0,0,1-.78-.19.86.86,0,0,1-.36-.57l0-.37a2.58,2.58,0,0,1-1,.88,3.26,3.26,0,0,1-1.39.28,1.75,1.75,0,0,1-1.42-.58A2.54,2.54,0,0,1,192.71,161.05Z"/><path class="cls-2" d="M202.39,163.32a4.62,4.62,0,0,1-1.52-.26,3.63,3.63,0,0,1-1.26-.76l.65-1.16a4.92,4.92,0,0,0,1.07.61,3,3,0,0,0,1,.2,1.23,1.23,0,0,0,.55-.1.36.36,0,0,0,.2-.34.31.31,0,0,0-.12-.26,1.6,1.6,0,0,0-.35-.18l-.58-.17a11.67,11.67,0,0,1-1.16-.46,1.69,1.69,0,0,1-.7-.52,1.31,1.31,0,0,1-.23-.82,1.81,1.81,0,0,1,.31-1.06,2.07,2.07,0,0,1,.88-.7,3.22,3.22,0,0,1,1.35-.25,4,4,0,0,1,1.23.19,3.13,3.13,0,0,1,1.12.68l-.73,1.15a4.81,4.81,0,0,0-.92-.53,2.32,2.32,0,0,0-.79-.16,1.25,1.25,0,0,0-.36.05.59.59,0,0,0-.27.15.39.39,0,0,0-.09.28.4.4,0,0,0,.09.27.79.79,0,0,0,.32.18l.53.17a10.74,10.74,0,0,1,1.27.44,1.83,1.83,0,0,1,.75.55,1.37,1.37,0,0,1,.25.86,1.69,1.69,0,0,1-.67,1.43A2.89,2.89,0,0,1,202.39,163.32Z"/><path class="cls-2" d="M208.73,163.32a3.57,3.57,0,0,1-1.38-.25,3.06,3.06,0,0,1-1-.69,2.88,2.88,0,0,1-.65-1,3.35,3.35,0,0,1-.22-1.19,3.12,3.12,0,0,1,.39-1.54,2.9,2.9,0,0,1,1.12-1.13,3.82,3.82,0,0,1,3.54,0,2.8,2.8,0,0,1,1.08,1.16l-1.81.54a1.32,1.32,0,0,0-.45-.43,1.13,1.13,0,0,0-.61-.16,1.29,1.29,0,0,0-.69.2,1.4,1.4,0,0,0-.48.54,1.73,1.73,0,0,0-.18.81,1.8,1.8,0,0,0,.18.82,1.31,1.31,0,0,0,.49.55,1.27,1.27,0,0,0,.68.19,1.25,1.25,0,0,0,.45-.07,1.07,1.07,0,0,0,.37-.22,1,1,0,0,0,.26-.3l1.8.55a2.68,2.68,0,0,1-.64.83,3.24,3.24,0,0,1-1,.56A3.35,3.35,0,0,1,208.73,163.32Z"/><path class="cls-2" d="M216.3,158.7a3.4,3.4,0,0,0-1.22.21,1.6,1.6,0,0,0-.79.64v3.65h-1.85v-6h1.69v1.16a2.61,2.61,0,0,1,.83-1,1.75,1.75,0,0,1,1-.36h.3Z"/><path class="cls-2" d="M217.08,156.42v-1.69h1.86v1.69Zm0,6.78v-6.09h1.86v6.09Z"/><path class="cls-2" d="M223.87,163.32a2.46,2.46,0,0,1-1.21-.29,2.1,2.1,0,0,1-.83-.84v1h-1.62v-8.47h1.86v3.46a2.1,2.1,0,0,1,.81-.81,2.27,2.27,0,0,1,1.2-.29,2.31,2.31,0,0,1,1,.23,2.43,2.43,0,0,1,.83.67,3.49,3.49,0,0,1,.56,1,3.79,3.79,0,0,1,.19,1.24,3.5,3.5,0,0,1-.21,1.21,3.25,3.25,0,0,1-.6,1,2.63,2.63,0,0,1-.9.65A2.78,2.78,0,0,1,223.87,163.32Zm-.52-1.57a1.44,1.44,0,0,0,1-.44,1.33,1.33,0,0,0,.31-.48,1.63,1.63,0,0,0,.11-.59,1.86,1.86,0,0,0-.17-.79,1.5,1.5,0,0,0-.49-.59,1.27,1.27,0,0,0-.71-.22,1.25,1.25,0,0,0-.56.14,1.71,1.71,0,0,0-.47.38,2,2,0,0,0-.34.52v1.26a1.5,1.5,0,0,0,.23.33,1.86,1.86,0,0,0,.31.26,1.49,1.49,0,0,0,.36.17A1.65,1.65,0,0,0,223.35,161.75Z"/><path class="cls-2" d="M227.64,156.42v-1.69h1.86v1.69Zm0,6.78v-6.09h1.86v6.09Z"/><path class="cls-2" d="M234.64,158.7a3.4,3.4,0,0,0-1.22.21,1.6,1.6,0,0,0-.79.64v3.65h-1.85v-6h1.69v1.16a2.68,2.68,0,0,1,.82-1,1.8,1.8,0,0,1,1.05-.36h.3Z"/><path class="cls-2" d="M237.75,163.32a4.57,4.57,0,0,1-1.51-.26,3.63,3.63,0,0,1-1.26-.76l.65-1.16a4.69,4.69,0,0,0,1.07.61,2.86,2.86,0,0,0,1,.2,1.17,1.17,0,0,0,.55-.1.35.35,0,0,0,.21-.34.31.31,0,0,0-.12-.26,1.71,1.71,0,0,0-.36-.18l-.58-.17c-.46-.16-.85-.32-1.16-.46a1.65,1.65,0,0,1-.69-.52,1.31,1.31,0,0,1-.24-.82,1.82,1.82,0,0,1,.32-1.06,2,2,0,0,1,.87-.7,3.29,3.29,0,0,1,1.35-.25,4,4,0,0,1,1.23.19,3.16,3.16,0,0,1,1.13.68l-.73,1.15a4.81,4.81,0,0,0-.92-.53,2.37,2.37,0,0,0-.8-.16,1.36,1.36,0,0,0-.36.05.56.56,0,0,0-.26.15.4.4,0,0,0-.1.28.41.41,0,0,0,.1.27.82.82,0,0,0,.31.18l.53.17a10.14,10.14,0,0,1,1.27.44,1.81,1.81,0,0,1,.76.55,1.44,1.44,0,0,1,.25.86,1.7,1.7,0,0,1-.68,1.43A2.87,2.87,0,0,1,237.75,163.32Z"/><path class="cls-2" d="M244.1,163.32a3.5,3.5,0,0,1-1.38-.25,3.06,3.06,0,0,1-1-.67,2.78,2.78,0,0,1-.64-1,3.07,3.07,0,0,1-.22-1.16,3.28,3.28,0,0,1,.39-1.59,2.94,2.94,0,0,1,1.12-1.15,3.82,3.82,0,0,1,3.52,0,2.77,2.77,0,0,1,1.11,1.14,3.2,3.2,0,0,1,.38,1.52c0,.11,0,.21,0,.32l0,.27h-4.5a1.27,1.27,0,0,0,.22.66,1.24,1.24,0,0,0,.5.41,1.51,1.51,0,0,0,.63.13,1.65,1.65,0,0,0,.79-.19,1.11,1.11,0,0,0,.5-.53l1.57.46a2.57,2.57,0,0,1-.65.83,3.28,3.28,0,0,1-1,.56A3.46,3.46,0,0,1,244.1,163.32Zm-1.33-3.69h2.63a1.32,1.32,0,0,0-.22-.64,1.26,1.26,0,0,0-.46-.43,1.38,1.38,0,0,0-.65-.15,1.33,1.33,0,0,0-.63.15,1.27,1.27,0,0,0-.47.42A1.46,1.46,0,0,0,242.77,159.63Z"/><rect class="cls-11" x="253.49" y="170.91" width="5.45" height="18.27" transform="translate(-54.95 215.29) rotate(-41.56)"/><polygon class="cls-11" points="263.28 174.31 252.2 175.51 249.68 186.37 243.33 165.51 263.28 174.31"/><line class="cls-12" x1="239.91" y1="153.88" x2="240.82" y2="159.48"/><line class="cls-12" x1="232.82" y1="159.67" x2="238.13" y2="161.68"/><line class="cls-12" x1="234.29" y1="168.71" x2="238.69" y2="165.12"/><line class="cls-12" x1="242.86" y1="171.96" x2="241.94" y2="166.36"/><line class="cls-12" x1="249.95" y1="166.16" x2="244.64" y2="164.15"/><line class="cls-12" x1="248.48" y1="157.12" x2="244.08" y2="160.71"/><path class="cls-8" d="M143.83,114H124.1l1.14,45.55s1.79.54,8.54.56h.71c6.4,0,8.37-.56,8.37-.56Z"/><path class="cls-10" d="M153.39,105.55s-7-4.82-10.87-9.46c.73-3.53,1.2-5.85,1.24-6.28.26-2.49-1.16-.14-1.16-.14L141.31,96a46.78,46.78,0,0,1-14.3,4.41,29.1,29.1,0,0,0,12.14,6.15L129,155.86l.52.77s6.52-30.06,10.73-49.88A24.11,24.11,0,0,0,153.39,105.55Z"/><path class="cls-4" d="M121.91,98.23a12.54,12.54,0,1,1-12.54-12.57A12.55,12.55,0,0,1,121.91,98.23Z"/><path class="cls-13" d="M112.11,90.68c0,1.52-2.74,6.41-2.74,6.41s-2.74-4.89-2.74-6.41a2.74,2.74,0,1,1,5.48,0Z"/><path class="cls-13" d="M106.63,105.81c0-1.52,2.74-6.4,2.74-6.4s2.74,4.88,2.74,6.4a2.74,2.74,0,1,1-5.48,0Z"/><path class="cls-13" d="M116.92,101c-1.52,0-6.39-2.75-6.39-2.75s4.87-2.75,6.39-2.75a2.75,2.75,0,0,1,0,5.5Z"/><path class="cls-13" d="M101.82,95.5c1.52,0,6.39,2.75,6.39,2.75s-4.87,2.75-6.39,2.75a2.75,2.75,0,0,1,0-5.5Z"/><path class="cls-13" d="M116.65,94.84c-1.07,1.08-6.46,2.59-6.46,2.59S111.7,92,112.77,91a2.74,2.74,0,0,1,3.88,3.88Z"/><path class="cls-13" d="M102.09,101.65c1.07-1.07,6.46-2.58,6.46-2.58s-1.51,5.4-2.58,6.47a2.75,2.75,0,0,1-3.88-3.89Z"/><path class="cls-13" d="M112.77,105.54c-1.07-1.07-2.58-6.47-2.58-6.47s5.39,1.51,6.46,2.58a2.75,2.75,0,1,1-3.88,3.89Z"/><path class="cls-13" d="M106,91c1.07,1.07,2.58,6.47,2.58,6.47s-5.39-1.51-6.46-2.59A2.74,2.74,0,0,1,106,91Z"/><path class="cls-14" d="M128,123.61c1.94-4.79-2.86-24.25-2.86-24.25H110.5s-4.8,19.46-2.86,24.25,8.29,9,8.75,14.47.74,15.3-.55,17.61-7.28,2-7.28,3.59c0,2.14,8.11,1.66,9.26,1.58,1.15.08,9.26.56,9.26-1.58,0-1.56-6-1.29-7.28-3.59s-1-12.17-.55-17.61S126.07,128.4,128,123.61Z"/><path class="cls-10" d="M149.84,144.57H138.61l1.67,16.86s.69,1.09,9.56,1.09,9.56-1.09,9.56-1.09l1.67-16.86Z"/><path class="cls-15" d="M148.46,155.53a1.21,1.21,0,0,1-.48,1.63l-3.67,2a1.15,1.15,0,0,1-1.59-.49l-2-3.75a1.22,1.22,0,0,1,.48-1.63l3.67-2a1.16,1.16,0,0,1,1.6.49Z"/><path class="cls-15" d="M151.88,159.32a1.18,1.18,0,0,1-1.53.7l-3.89-1.53a1.22,1.22,0,0,1-.67-1.56l1.49-4a1.18,1.18,0,0,1,1.53-.69l3.89,1.53a1.2,1.2,0,0,1,.67,1.55Z"/><path class="cls-15" d="M154.4,159.57a1.17,1.17,0,0,1-1.46-.82l-1.16-4.1a1.21,1.21,0,0,1,.8-1.49l4-1.19a1.19,1.19,0,0,1,1.46.83l1.16,4.09a1.2,1.2,0,0,1-.81,1.49Z"/><path class="cls-8" d="M109.08,158.41c-3.67-.62-4.5-3.24-4.5-3.24V144.39c0-5.78,1.83-8,1.83-8l9.89-13.22H90.55l9.89,13.22s1.83,2.26,1.83,8v10.78s-.82,2.62-4.5,3.24-1.29,1.4-1.29,1.4a36.05,36.05,0,0,0,6.93.52,36.3,36.3,0,0,0,7-.52S112.71,159,109.08,158.41Z"/><path class="cls-14" d="M100.69,134.07s1-1.07,2.61-2.62c.4-.39.83-.81,1.29-1.24l1.46-1.37,1.57-1.45,1.63-1.48,1.65-1.46c.54-.49,1.09-1,1.61-1.41,1-.9,2-1.73,2.89-2.44,1.71-1.41,2.89-2.31,2.89-2.31s-1,1.08-2.62,2.62c-.79.78-1.73,1.67-2.75,2.62-.51.46-1,1-1.57,1.44l-1.63,1.48-1.65,1.47c-.54.48-1.09.94-1.61,1.4s-1,.89-1.52,1.3-.94.79-1.37,1.14C101.86,133.18,100.69,134.07,100.69,134.07Z"/><path class="cls-16" d="M105.53,128.52a2.79,2.79,0,0,0-3.91.84,2.89,2.89,0,0,0,.77,4,2.81,2.81,0,0,0,3.92-.84A2.9,2.9,0,0,0,105.53,128.52Z"/><path class="cls-4" d="M105.9,130.94c-.3-.2-.8.05-1.13.55s-.35,1.07,0,1.27.81,0,1.13-.54S106.2,131.14,105.9,130.94Z"/></g></svg>